 Room
v -2.000000 0.000000 2.000000
v -2.000000 2.500000 2.000000
v -2.000000 0.000000 -2.000000
v -2.000000 2.500000 -2.000000
v 2.000000 0.000000 2.000000
v 2.000000 2.500000 2.000000
v 2.000000 0.000000 -2.000000
v 2.000000 2.500000 -2.000000
vn 1.0000 -0.0000 -0.0000
vn -0.0000 -0.0000 1.0000
vn -1.0000 -0.0000 -0.0000
vn -0.0000 -0.0000 -1.0000
vn -0.0000 1.0000 -0.0000
vn -0.0000 -1.0000 -0.0000
vt 0.000000 0.187500
vt 0.000000 0.000000
vt 0.000000 0.812500
vt 0.000000 0.000000
vt 1.000000 0.187500
vt 0.000000 0.187500
vt 0.000000 1.000000
vt 1.000000 0.812500
vt 0.000000 0.812500
vt 0.000000 1.000000
vt 0.000000 0.187500
vt 1.000000 0.187500
vt 1.000000 0.000000
vt 0.000000 0.812500
vt 1.000000 0.812500
vt 1.000000 0.000000
vt 1.000000 0.187500
vt 1.000000 1.000000
vt 1.000000 0.812500
vt 1.000000 1.000000
s 0
usemtl Material

f 1/1/1 3/5/1 4/8/1 2/3/1
f 3/6/2 7/17/2 8/19/2 4/9/2
f 7/17/3 5/11/3 6/14/3 8/19/3
f 5/12/4 1/1/4 2/3/4 6/15/4
f 3/7/5 1/2/5 5/13/5 7/18/5
f 8/20/6 6/16/6 2/4/6 4/10/6
