 Table
v -1.375000 0.000000 0.350000
v -1.375000 0.800000 0.350000
v -1.375000 0.000000 -0.350000
v -1.375000 0.800000 -0.350000
v 1.375000 0.000000 0.350000
v 1.375000 0.800000 0.350000
v 1.375000 0.000000 -0.350000
v 1.375000 0.800000 -0.350000
vn -1.0000 -0.0000 -0.0000
vn -0.0000 -0.0000 -1.0000
vn 1.0000 -0.0000 -0.0000
vn -0.0000 -0.0000 1.0000
vn -0.0000 -1.0000 -0.0000
vn -0.0000 1.0000 -0.0000
vt 0.402860 0.774059
vt 0.457852 0.005971
vt 0.469793 0.005971
vt 0.402860 0.994029
vt 0.237882 0.005971
vt 0.674208 0.762118
vt 0.225941 0.762118
vt 0.662267 0.005971
vt 0.210386 0.774059
vt 0.210386 0.994029
vt 0.005971 0.762118
vt 0.866682 0.762118
vt 0.457852 0.762118
vt 0.005971 0.774059
vt 0.469793 0.762118
vt 0.005971 0.994029
vt 0.237882 0.762118
vt 0.674208 0.005971
vt 0.198444 0.774059
vt 0.225941 0.005971
vt 0.662267 0.762118
vt 0.866682 0.005971
vt 0.005971 0.005971
vt 0.198444 0.994029
s 0
f 2/4/1 3/9/1 1/1/1
f 4/11/2 7/20/2 3/7/2
f 8/24/3 5/14/3 7/19/3
f 6/17/4 1/2/4 5/13/4
f 7/21/5 1/3/5 3/8/5
f 4/12/6 6/18/6 8/22/6
f 2/4/1 4/10/1 3/9/1
f 4/11/2 8/23/2 7/20/2
f 8/24/3 6/16/3 5/14/3
f 6/17/4 2/5/4 1/2/4
f 7/21/5 5/15/5 1/3/5
f 4/12/6 2/6/6 6/18/6
